<mxfile host="65bd71144e">
    <diagram id="EcRJSJ9z8w9bxETv735f" name="Seite-1">
        <mxGraphModel dx="1429" dy="703" grid="1" gridSize="10" guides="1" tooltips="1" connect="1" arrows="1" fold="1" page="1" pageScale="1" pageWidth="827" pageHeight="1169" math="0" shadow="0">
            <root>
                <mxCell id="0"/>
                <mxCell id="1" parent="0"/>
                <mxCell id="4BjwbTO_Yd0KImYZajV0-21" style="edgeStyle=orthogonalEdgeStyle;rounded=0;orthogonalLoop=1;jettySize=auto;html=1;entryX=0;entryY=0.5;entryDx=0;entryDy=0;endArrow=none;endFill=0;" parent="1" source="4BjwbTO_Yd0KImYZajV0-1" target="4BjwbTO_Yd0KImYZajV0-4" edge="1">
                    <mxGeometry relative="1" as="geometry"/>
                </mxCell>
                <mxCell id="4BjwbTO_Yd0KImYZajV0-1" value="" style="ellipse;whiteSpace=wrap;html=1;aspect=fixed;fillColor=#d5e8d4;strokeColor=#82b366;" parent="1" vertex="1">
                    <mxGeometry x="70" y="110" width="20" height="20" as="geometry"/>
                </mxCell>
                <mxCell id="4BjwbTO_Yd0KImYZajV0-2" value="" style="ellipse;whiteSpace=wrap;html=1;aspect=fixed;fillColor=#d5e8d4;strokeColor=#82b366;" parent="1" vertex="1">
                    <mxGeometry x="750" y="110" width="20" height="20" as="geometry"/>
                </mxCell>
                <mxCell id="4BjwbTO_Yd0KImYZajV0-23" style="edgeStyle=orthogonalEdgeStyle;rounded=0;orthogonalLoop=1;jettySize=auto;html=1;entryX=0;entryY=0.5;entryDx=0;entryDy=0;endArrow=none;endFill=0;" parent="1" source="4BjwbTO_Yd0KImYZajV0-3" target="4BjwbTO_Yd0KImYZajV0-2" edge="1">
                    <mxGeometry relative="1" as="geometry"/>
                </mxCell>
                <mxCell id="4BjwbTO_Yd0KImYZajV0-3" value="" style="ellipse;whiteSpace=wrap;html=1;aspect=fixed;fillColor=#d5e8d4;strokeColor=#82b366;" parent="1" vertex="1">
                    <mxGeometry x="590" y="110" width="20" height="20" as="geometry"/>
                </mxCell>
                <mxCell id="4BjwbTO_Yd0KImYZajV0-22" style="edgeStyle=orthogonalEdgeStyle;rounded=0;orthogonalLoop=1;jettySize=auto;html=1;entryX=0;entryY=0.5;entryDx=0;entryDy=0;endArrow=none;endFill=0;" parent="1" source="4BjwbTO_Yd0KImYZajV0-4" target="4BjwbTO_Yd0KImYZajV0-3" edge="1">
                    <mxGeometry relative="1" as="geometry"/>
                </mxCell>
                <mxCell id="4BjwbTO_Yd0KImYZajV0-4" value="" style="ellipse;whiteSpace=wrap;html=1;aspect=fixed;fillColor=#d5e8d4;fontStyle=0;strokeColor=#82b366;" parent="1" vertex="1">
                    <mxGeometry x="230" y="110" width="20" height="20" as="geometry"/>
                </mxCell>
                <mxCell id="4BjwbTO_Yd0KImYZajV0-5" value="" style="ellipse;whiteSpace=wrap;html=1;aspect=fixed;fillColor=#dae8fc;strokeColor=#6c8ebf;" parent="1" vertex="1">
                    <mxGeometry x="70" y="190" width="20" height="20" as="geometry"/>
                </mxCell>
                <mxCell id="4BjwbTO_Yd0KImYZajV0-87" style="edgeStyle=orthogonalEdgeStyle;rounded=0;orthogonalLoop=1;jettySize=auto;html=1;endArrow=none;endFill=0;fontSize=9;" parent="1" source="4BjwbTO_Yd0KImYZajV0-6" target="4BjwbTO_Yd0KImYZajV0-83" edge="1">
                    <mxGeometry relative="1" as="geometry"/>
                </mxCell>
                <mxCell id="4BjwbTO_Yd0KImYZajV0-6" value="" style="ellipse;whiteSpace=wrap;html=1;aspect=fixed;fillColor=#dae8fc;strokeColor=#6c8ebf;" parent="1" vertex="1">
                    <mxGeometry x="750" y="190" width="20" height="20" as="geometry"/>
                </mxCell>
                <mxCell id="4BjwbTO_Yd0KImYZajV0-25" style="edgeStyle=orthogonalEdgeStyle;rounded=0;orthogonalLoop=1;jettySize=auto;html=1;entryX=0;entryY=0.5;entryDx=0;entryDy=0;endArrow=none;endFill=0;" parent="1" source="4BjwbTO_Yd0KImYZajV0-9" target="4BjwbTO_Yd0KImYZajV0-12" edge="1">
                    <mxGeometry relative="1" as="geometry"/>
                </mxCell>
                <mxCell id="4BjwbTO_Yd0KImYZajV0-9" value="" style="ellipse;whiteSpace=wrap;html=1;aspect=fixed;fillColor=#dae8fc;strokeColor=#6c8ebf;" parent="1" vertex="1">
                    <mxGeometry x="70" y="230" width="20" height="20" as="geometry"/>
                </mxCell>
                <mxCell id="4BjwbTO_Yd0KImYZajV0-10" value="" style="ellipse;whiteSpace=wrap;html=1;aspect=fixed;fillColor=#dae8fc;strokeColor=#6c8ebf;" parent="1" vertex="1">
                    <mxGeometry x="750" y="230" width="20" height="20" as="geometry"/>
                </mxCell>
                <mxCell id="4BjwbTO_Yd0KImYZajV0-27" style="edgeStyle=orthogonalEdgeStyle;rounded=0;orthogonalLoop=1;jettySize=auto;html=1;endArrow=none;endFill=0;entryX=0;entryY=0.5;entryDx=0;entryDy=0;" parent="1" source="4BjwbTO_Yd0KImYZajV0-11" target="4BjwbTO_Yd0KImYZajV0-10" edge="1">
                    <mxGeometry relative="1" as="geometry">
                        <mxPoint x="744" y="239" as="targetPoint"/>
                    </mxGeometry>
                </mxCell>
                <mxCell id="4BjwbTO_Yd0KImYZajV0-11" value="" style="ellipse;whiteSpace=wrap;html=1;aspect=fixed;fillColor=#dae8fc;strokeColor=#6c8ebf;" parent="1" vertex="1">
                    <mxGeometry x="590" y="230" width="20" height="20" as="geometry"/>
                </mxCell>
                <mxCell id="4BjwbTO_Yd0KImYZajV0-26" style="edgeStyle=orthogonalEdgeStyle;rounded=0;orthogonalLoop=1;jettySize=auto;html=1;entryX=0;entryY=0.5;entryDx=0;entryDy=0;endArrow=none;endFill=0;" parent="1" source="4BjwbTO_Yd0KImYZajV0-12" target="4BjwbTO_Yd0KImYZajV0-11" edge="1">
                    <mxGeometry relative="1" as="geometry"/>
                </mxCell>
                <mxCell id="4BjwbTO_Yd0KImYZajV0-12" value="" style="ellipse;whiteSpace=wrap;html=1;aspect=fixed;fillColor=#dae8fc;strokeColor=#6c8ebf;" parent="1" vertex="1">
                    <mxGeometry x="230" y="230" width="20" height="20" as="geometry"/>
                </mxCell>
                <mxCell id="4BjwbTO_Yd0KImYZajV0-42" style="edgeStyle=orthogonalEdgeStyle;rounded=0;orthogonalLoop=1;jettySize=auto;html=1;entryX=0;entryY=0.5;entryDx=0;entryDy=0;endArrow=none;endFill=0;" parent="1" source="4BjwbTO_Yd0KImYZajV0-13" target="4BjwbTO_Yd0KImYZajV0-16" edge="1">
                    <mxGeometry relative="1" as="geometry"/>
                </mxCell>
                <mxCell id="4BjwbTO_Yd0KImYZajV0-13" value="" style="ellipse;whiteSpace=wrap;html=1;aspect=fixed;fillColor=#ffe6cc;strokeColor=#d79b00;" parent="1" vertex="1">
                    <mxGeometry x="70" y="349" width="20" height="20" as="geometry"/>
                </mxCell>
                <mxCell id="4BjwbTO_Yd0KImYZajV0-14" value="" style="ellipse;whiteSpace=wrap;html=1;aspect=fixed;fillColor=#ffe6cc;strokeColor=#d79b00;" parent="1" vertex="1">
                    <mxGeometry x="750" y="349" width="20" height="20" as="geometry"/>
                </mxCell>
                <mxCell id="4BjwbTO_Yd0KImYZajV0-38" style="edgeStyle=orthogonalEdgeStyle;rounded=0;orthogonalLoop=1;jettySize=auto;html=1;entryX=0;entryY=0.5;entryDx=0;entryDy=0;endArrow=none;endFill=0;" parent="1" source="4BjwbTO_Yd0KImYZajV0-15" target="4BjwbTO_Yd0KImYZajV0-14" edge="1">
                    <mxGeometry relative="1" as="geometry"/>
                </mxCell>
                <mxCell id="4BjwbTO_Yd0KImYZajV0-15" value="" style="ellipse;whiteSpace=wrap;html=1;aspect=fixed;fillColor=#ffe6cc;strokeColor=#d79b00;" parent="1" vertex="1">
                    <mxGeometry x="590" y="349" width="20" height="20" as="geometry"/>
                </mxCell>
                <mxCell id="4BjwbTO_Yd0KImYZajV0-37" style="edgeStyle=orthogonalEdgeStyle;rounded=0;orthogonalLoop=1;jettySize=auto;html=1;entryX=0;entryY=0.5;entryDx=0;entryDy=0;endArrow=none;endFill=0;" parent="1" source="4BjwbTO_Yd0KImYZajV0-16" target="4BjwbTO_Yd0KImYZajV0-15" edge="1">
                    <mxGeometry relative="1" as="geometry"/>
                </mxCell>
                <mxCell id="4BjwbTO_Yd0KImYZajV0-16" value="" style="ellipse;whiteSpace=wrap;html=1;aspect=fixed;fillColor=#ffe6cc;strokeColor=#d79b00;" parent="1" vertex="1">
                    <mxGeometry x="230" y="349" width="20" height="20" as="geometry"/>
                </mxCell>
                <mxCell id="4BjwbTO_Yd0KImYZajV0-45" style="edgeStyle=orthogonalEdgeStyle;rounded=0;orthogonalLoop=1;jettySize=auto;html=1;endArrow=none;endFill=0;exitX=1;exitY=0.5;exitDx=0;exitDy=0;entryX=0;entryY=0.5;entryDx=0;entryDy=0;" parent="1" source="4BjwbTO_Yd0KImYZajV0-47" target="4BjwbTO_Yd0KImYZajV0-54" edge="1">
                    <mxGeometry relative="1" as="geometry">
                        <mxPoint x="180" y="439" as="targetPoint"/>
                    </mxGeometry>
                </mxCell>
                <mxCell id="4BjwbTO_Yd0KImYZajV0-44" style="edgeStyle=orthogonalEdgeStyle;rounded=0;orthogonalLoop=1;jettySize=auto;html=1;entryX=0;entryY=0.5;entryDx=0;entryDy=0;endArrow=none;endFill=0;" parent="1" edge="1">
                    <mxGeometry relative="1" as="geometry">
                        <mxPoint x="610" y="439" as="sourcePoint"/>
                        <mxPoint x="750" y="439" as="targetPoint"/>
                    </mxGeometry>
                </mxCell>
                <mxCell id="4BjwbTO_Yd0KImYZajV0-43" style="edgeStyle=orthogonalEdgeStyle;rounded=0;orthogonalLoop=1;jettySize=auto;html=1;entryX=0;entryY=0.5;entryDx=0;entryDy=0;endArrow=none;endFill=0;" parent="1" source="4BjwbTO_Yd0KImYZajV0-51" edge="1">
                    <mxGeometry relative="1" as="geometry">
                        <mxPoint x="290" y="439" as="sourcePoint"/>
                        <mxPoint x="590" y="439" as="targetPoint"/>
                    </mxGeometry>
                </mxCell>
                <mxCell id="4BjwbTO_Yd0KImYZajV0-28" value="Leg 1" style="text;html=1;strokeColor=none;fillColor=none;align=center;verticalAlign=middle;whiteSpace=wrap;rounded=0;fontSize=10;" parent="1" vertex="1">
                    <mxGeometry x="125" y="90" width="70" height="20" as="geometry"/>
                </mxCell>
                <mxCell id="4BjwbTO_Yd0KImYZajV0-29" value="Leg 2" style="text;html=1;strokeColor=none;fillColor=none;align=center;verticalAlign=middle;whiteSpace=wrap;rounded=0;fontSize=10;" parent="1" vertex="1">
                    <mxGeometry x="390" y="90" width="70" height="20" as="geometry"/>
                </mxCell>
                <mxCell id="4BjwbTO_Yd0KImYZajV0-30" value="Leg 3" style="text;html=1;strokeColor=none;fillColor=none;align=center;verticalAlign=middle;whiteSpace=wrap;rounded=0;fontSize=10;" parent="1" vertex="1">
                    <mxGeometry x="650" y="90" width="70" height="20" as="geometry"/>
                </mxCell>
                <mxCell id="4BjwbTO_Yd0KImYZajV0-31" value="&lt;font style=&quot;font-size: 10px&quot;&gt;Offer&lt;/font&gt;" style="text;html=1;strokeColor=none;fillColor=none;align=center;verticalAlign=middle;whiteSpace=wrap;rounded=0;" parent="1" vertex="1">
                    <mxGeometry x="390" y="170" width="70" height="20" as="geometry"/>
                </mxCell>
                <mxCell id="4BjwbTO_Yd0KImYZajV0-33" value="&lt;font style=&quot;font-size: 10px&quot;&gt;Product 1&lt;/font&gt;" style="text;html=1;strokeColor=none;fillColor=none;align=center;verticalAlign=middle;whiteSpace=wrap;rounded=0;" parent="1" vertex="1">
                    <mxGeometry x="125" y="329" width="70" height="20" as="geometry"/>
                </mxCell>
                <mxCell id="4BjwbTO_Yd0KImYZajV0-39" value="&lt;font style=&quot;font-size: 10px&quot;&gt;Product 3&lt;/font&gt;" style="text;html=1;strokeColor=none;fillColor=none;align=center;verticalAlign=middle;whiteSpace=wrap;rounded=0;" parent="1" vertex="1">
                    <mxGeometry x="650" y="329" width="70" height="20" as="geometry"/>
                </mxCell>
                <mxCell id="4BjwbTO_Yd0KImYZajV0-47" value="" style="rhombus;whiteSpace=wrap;html=1;fillColor=#e1d5e7;strokeColor=#9673a6;" parent="1" vertex="1">
                    <mxGeometry x="70" y="429" width="20" height="20" as="geometry"/>
                </mxCell>
                <mxCell id="4BjwbTO_Yd0KImYZajV0-52" value="" style="rhombus;whiteSpace=wrap;html=1;fillColor=#e1d5e7;strokeColor=#9673a6;" parent="1" vertex="1">
                    <mxGeometry x="590" y="429" width="20" height="20" as="geometry"/>
                </mxCell>
                <mxCell id="4BjwbTO_Yd0KImYZajV0-53" value="" style="rhombus;whiteSpace=wrap;html=1;fillColor=#e1d5e7;strokeColor=#9673a6;" parent="1" vertex="1">
                    <mxGeometry x="750" y="429" width="20" height="20" as="geometry"/>
                </mxCell>
                <mxCell id="4BjwbTO_Yd0KImYZajV0-55" style="edgeStyle=orthogonalEdgeStyle;rounded=0;orthogonalLoop=1;jettySize=auto;html=1;entryX=0;entryY=0.5;entryDx=0;entryDy=0;endArrow=none;endFill=0;" parent="1" source="4BjwbTO_Yd0KImYZajV0-54" target="4BjwbTO_Yd0KImYZajV0-51" edge="1">
                    <mxGeometry relative="1" as="geometry"/>
                </mxCell>
                <mxCell id="4BjwbTO_Yd0KImYZajV0-54" value="" style="rhombus;whiteSpace=wrap;html=1;fillColor=#e1d5e7;strokeColor=#9673a6;" parent="1" vertex="1">
                    <mxGeometry x="230" y="429" width="20" height="20" as="geometry"/>
                </mxCell>
                <mxCell id="4BjwbTO_Yd0KImYZajV0-56" value="&lt;font style=&quot;font-size: 10px&quot;&gt;Product 2&lt;/font&gt;" style="text;html=1;strokeColor=none;fillColor=none;align=center;verticalAlign=middle;whiteSpace=wrap;rounded=0;" parent="1" vertex="1">
                    <mxGeometry x="390" y="329" width="70" height="20" as="geometry"/>
                </mxCell>
                <mxCell id="4BjwbTO_Yd0KImYZajV0-57" value="&lt;font style=&quot;font-size: 10px&quot;&gt;OfferPart 1&lt;/font&gt;" style="text;html=1;strokeColor=none;fillColor=none;align=center;verticalAlign=middle;whiteSpace=wrap;rounded=0;" parent="1" vertex="1">
                    <mxGeometry x="125" y="220" width="70" height="20" as="geometry"/>
                </mxCell>
                <mxCell id="4BjwbTO_Yd0KImYZajV0-58" value="&lt;font style=&quot;font-size: 10px&quot;&gt;OfferPart 2&lt;/font&gt;" style="text;html=1;strokeColor=none;fillColor=none;align=center;verticalAlign=middle;whiteSpace=wrap;rounded=0;" parent="1" vertex="1">
                    <mxGeometry x="390" y="220" width="70" height="20" as="geometry"/>
                </mxCell>
                <mxCell id="4BjwbTO_Yd0KImYZajV0-59" value="&lt;font style=&quot;font-size: 10px&quot;&gt;OfferPart 3&lt;/font&gt;" style="text;html=1;strokeColor=none;fillColor=none;align=center;verticalAlign=middle;whiteSpace=wrap;rounded=0;" parent="1" vertex="1">
                    <mxGeometry x="645" y="220" width="70" height="20" as="geometry"/>
                </mxCell>
                <mxCell id="4BjwbTO_Yd0KImYZajV0-60" value="&lt;font style=&quot;font-size: 10px&quot;&gt;Fare A&lt;/font&gt;" style="text;html=1;strokeColor=none;fillColor=none;align=center;verticalAlign=middle;whiteSpace=wrap;rounded=0;" parent="1" vertex="1">
                    <mxGeometry x="125" y="409" width="70" height="20" as="geometry"/>
                </mxCell>
                <mxCell id="4BjwbTO_Yd0KImYZajV0-61" value="&lt;font style=&quot;font-size: 10px&quot;&gt;Fare C&lt;/font&gt;" style="text;html=1;strokeColor=none;fillColor=none;align=center;verticalAlign=middle;whiteSpace=wrap;rounded=0;" parent="1" vertex="1">
                    <mxGeometry x="650" y="409" width="70" height="20" as="geometry"/>
                </mxCell>
                <mxCell id="4BjwbTO_Yd0KImYZajV0-62" value="&lt;font style=&quot;font-size: 10px&quot;&gt;Fare B2&lt;/font&gt;" style="text;html=1;strokeColor=none;fillColor=none;align=center;verticalAlign=middle;whiteSpace=wrap;rounded=0;" parent="1" vertex="1">
                    <mxGeometry x="450" y="409" width="70" height="20" as="geometry"/>
                </mxCell>
                <mxCell id="4BjwbTO_Yd0KImYZajV0-63" value="&lt;font style=&quot;font-size: 10px&quot;&gt;Fare B1&lt;/font&gt;" style="text;html=1;strokeColor=none;fillColor=none;align=center;verticalAlign=middle;whiteSpace=wrap;rounded=0;" parent="1" vertex="1">
                    <mxGeometry x="260" y="409" width="60" height="20" as="geometry"/>
                </mxCell>
                <mxCell id="4BjwbTO_Yd0KImYZajV0-64" value="A" style="text;html=1;strokeColor=none;fillColor=none;align=center;verticalAlign=middle;whiteSpace=wrap;rounded=0;fontSize=9;fontStyle=1" parent="1" vertex="1">
                    <mxGeometry x="70" y="230" width="20" height="20" as="geometry"/>
                </mxCell>
                <mxCell id="4BjwbTO_Yd0KImYZajV0-65" value="B" style="text;html=1;strokeColor=none;fillColor=none;align=center;verticalAlign=middle;whiteSpace=wrap;rounded=0;fontSize=9;fontStyle=1" parent="1" vertex="1">
                    <mxGeometry x="230" y="230" width="20" height="20" as="geometry"/>
                </mxCell>
                <mxCell id="4BjwbTO_Yd0KImYZajV0-67" value="C" style="text;html=1;strokeColor=none;fillColor=none;align=center;verticalAlign=middle;whiteSpace=wrap;rounded=0;fontSize=9;fontStyle=1" parent="1" vertex="1">
                    <mxGeometry x="590" y="110" width="20" height="20" as="geometry"/>
                </mxCell>
                <mxCell id="4BjwbTO_Yd0KImYZajV0-69" value="D" style="text;html=1;strokeColor=none;fillColor=none;align=center;verticalAlign=middle;whiteSpace=wrap;rounded=0;fontSize=9;fontStyle=1" parent="1" vertex="1">
                    <mxGeometry x="750" y="190" width="20" height="20" as="geometry"/>
                </mxCell>
                <mxCell id="4BjwbTO_Yd0KImYZajV0-70" value="B" style="text;html=1;strokeColor=none;fillColor=none;align=center;verticalAlign=middle;whiteSpace=wrap;rounded=0;fontSize=9;fontStyle=1" parent="1" vertex="1">
                    <mxGeometry x="220" y="110" width="40" height="20" as="geometry"/>
                </mxCell>
                <mxCell id="4BjwbTO_Yd0KImYZajV0-71" value="D" style="text;html=1;strokeColor=none;fillColor=none;align=center;verticalAlign=middle;whiteSpace=wrap;rounded=0;fontSize=9;fontStyle=1" parent="1" vertex="1">
                    <mxGeometry x="750" y="110" width="20" height="20" as="geometry"/>
                </mxCell>
                <mxCell id="4BjwbTO_Yd0KImYZajV0-75" value="D" style="text;html=1;strokeColor=none;fillColor=none;align=center;verticalAlign=middle;whiteSpace=wrap;rounded=0;fontSize=9;fontStyle=1" parent="1" vertex="1">
                    <mxGeometry x="750" y="230" width="20" height="20" as="geometry"/>
                </mxCell>
                <mxCell id="4BjwbTO_Yd0KImYZajV0-78" value="B" style="text;html=1;strokeColor=none;fillColor=none;align=center;verticalAlign=middle;whiteSpace=wrap;rounded=0;fontSize=9;fontStyle=1" parent="1" vertex="1">
                    <mxGeometry x="230" y="429" width="20" height="20" as="geometry"/>
                </mxCell>
                <mxCell id="4BjwbTO_Yd0KImYZajV0-79" value="C" style="text;html=1;strokeColor=none;fillColor=none;align=center;verticalAlign=middle;whiteSpace=wrap;rounded=0;fontSize=9;fontStyle=1" parent="1" vertex="1">
                    <mxGeometry x="590" y="429" width="20" height="20" as="geometry"/>
                </mxCell>
                <mxCell id="4BjwbTO_Yd0KImYZajV0-80" value="D" style="text;html=1;strokeColor=none;fillColor=none;align=center;verticalAlign=middle;whiteSpace=wrap;rounded=0;fontSize=9;fontStyle=1" parent="1" vertex="1">
                    <mxGeometry x="750" y="429" width="20" height="20" as="geometry"/>
                </mxCell>
                <mxCell id="4BjwbTO_Yd0KImYZajV0-81" value="A" style="text;html=1;strokeColor=none;fillColor=none;align=center;verticalAlign=middle;whiteSpace=wrap;rounded=0;fontSize=9;fontStyle=1" parent="1" vertex="1">
                    <mxGeometry x="70" y="429" width="20" height="20" as="geometry"/>
                </mxCell>
                <mxCell id="4BjwbTO_Yd0KImYZajV0-82" value="A" style="text;html=1;strokeColor=none;fillColor=none;align=center;verticalAlign=middle;whiteSpace=wrap;rounded=0;fontSize=9;fontStyle=1" parent="1" vertex="1">
                    <mxGeometry x="70" y="110" width="20" height="20" as="geometry"/>
                </mxCell>
                <mxCell id="4BjwbTO_Yd0KImYZajV0-83" value="A" style="text;html=1;strokeColor=none;fillColor=none;align=center;verticalAlign=middle;whiteSpace=wrap;rounded=0;fontSize=9;fontStyle=1" parent="1" vertex="1">
                    <mxGeometry x="70" y="190" width="20" height="20" as="geometry"/>
                </mxCell>
                <mxCell id="4BjwbTO_Yd0KImYZajV0-90" value="C" style="text;html=1;strokeColor=none;fillColor=none;align=center;verticalAlign=middle;whiteSpace=wrap;rounded=0;fontSize=9;fontStyle=1" parent="1" vertex="1">
                    <mxGeometry x="590" y="230" width="20" height="20" as="geometry"/>
                </mxCell>
                <mxCell id="4BjwbTO_Yd0KImYZajV0-91" value="" style="endArrow=none;dashed=1;html=1;strokeWidth=1;fontSize=10;dashPattern=1 1;strokeColor=#67AB9F;" parent="1" edge="1">
                    <mxGeometry width="50" height="50" relative="1" as="geometry">
                        <mxPoint x="340" y="420" as="sourcePoint"/>
                        <mxPoint x="340" y="100" as="targetPoint"/>
                    </mxGeometry>
                </mxCell>
                <mxCell id="4BjwbTO_Yd0KImYZajV0-51" value="" style="rhombus;whiteSpace=wrap;html=1;fillColor=#e1d5e7;strokeColor=#9673a6;" parent="1" vertex="1">
                    <mxGeometry x="330" y="429" width="20" height="20" as="geometry"/>
                </mxCell>
                <mxCell id="4BjwbTO_Yd0KImYZajV0-92" style="edgeStyle=orthogonalEdgeStyle;rounded=0;orthogonalLoop=1;jettySize=auto;html=1;entryX=0;entryY=0.5;entryDx=0;entryDy=0;endArrow=none;endFill=0;" parent="1" target="4BjwbTO_Yd0KImYZajV0-51" edge="1">
                    <mxGeometry relative="1" as="geometry">
                        <mxPoint x="290" y="439" as="sourcePoint"/>
                        <mxPoint x="590" y="439" as="targetPoint"/>
                    </mxGeometry>
                </mxCell>
                <mxCell id="4BjwbTO_Yd0KImYZajV0-95" value="&lt;font style=&quot;font-size: 8px&quot;&gt;Virtual Borderpoint&lt;/font&gt;" style="text;html=1;strokeColor=none;fillColor=none;align=center;verticalAlign=middle;whiteSpace=wrap;rounded=0;fontSize=10;" parent="1" vertex="1">
                    <mxGeometry x="295" y="459" width="90" height="20" as="geometry"/>
                </mxCell>
                <mxCell id="4BjwbTO_Yd0KImYZajV0-96" value="A" style="text;html=1;strokeColor=none;fillColor=none;align=center;verticalAlign=middle;whiteSpace=wrap;rounded=0;fontSize=9;fontStyle=1" parent="1" vertex="1">
                    <mxGeometry x="70" y="349" width="20" height="20" as="geometry"/>
                </mxCell>
                <mxCell id="4BjwbTO_Yd0KImYZajV0-97" value="B" style="text;html=1;strokeColor=none;fillColor=none;align=center;verticalAlign=middle;whiteSpace=wrap;rounded=0;fontSize=9;fontStyle=1" parent="1" vertex="1">
                    <mxGeometry x="230" y="349" width="20" height="20" as="geometry"/>
                </mxCell>
                <mxCell id="4BjwbTO_Yd0KImYZajV0-98" value="C" style="text;html=1;strokeColor=none;fillColor=none;align=center;verticalAlign=middle;whiteSpace=wrap;rounded=0;fontSize=9;fontStyle=1" parent="1" vertex="1">
                    <mxGeometry x="590" y="349" width="20" height="20" as="geometry"/>
                </mxCell>
                <mxCell id="4BjwbTO_Yd0KImYZajV0-99" value="D" style="text;html=1;strokeColor=none;fillColor=none;align=center;verticalAlign=middle;whiteSpace=wrap;rounded=0;fontSize=9;fontStyle=1" parent="1" vertex="1">
                    <mxGeometry x="750" y="349" width="20" height="20" as="geometry"/>
                </mxCell>
                <mxCell id="UwHSXiVxh4ntjtm-5i0u-2" value="" style="ellipse;whiteSpace=wrap;html=1;aspect=fixed;fillColor=#dae8fc;strokeColor=#6c8ebf;" parent="1" vertex="1">
                    <mxGeometry x="70" y="270" width="20" height="20" as="geometry"/>
                </mxCell>
                <mxCell id="UwHSXiVxh4ntjtm-5i0u-3" value="A" style="text;html=1;strokeColor=none;fillColor=none;align=center;verticalAlign=middle;whiteSpace=wrap;rounded=0;fontSize=9;fontStyle=1" parent="1" vertex="1">
                    <mxGeometry x="70" y="270" width="20" height="20" as="geometry"/>
                </mxCell>
                <mxCell id="UwHSXiVxh4ntjtm-5i0u-4" value="" style="ellipse;whiteSpace=wrap;html=1;aspect=fixed;fillColor=#dae8fc;strokeColor=#6c8ebf;" parent="1" vertex="1">
                    <mxGeometry x="230" y="270" width="20" height="20" as="geometry"/>
                </mxCell>
                <mxCell id="UwHSXiVxh4ntjtm-5i0u-8" style="edgeStyle=orthogonalEdgeStyle;rounded=0;orthogonalLoop=1;jettySize=auto;html=1;entryX=0;entryY=0.5;entryDx=0;entryDy=0;endArrow=none;endFill=0;" parent="1" source="UwHSXiVxh4ntjtm-5i0u-5" target="UwHSXiVxh4ntjtm-5i0u-7" edge="1">
                    <mxGeometry relative="1" as="geometry"/>
                </mxCell>
                <mxCell id="UwHSXiVxh4ntjtm-5i0u-9" style="edgeStyle=orthogonalEdgeStyle;rounded=0;orthogonalLoop=1;jettySize=auto;html=1;entryX=1;entryY=0.5;entryDx=0;entryDy=0;endArrow=none;endFill=0;" parent="1" source="UwHSXiVxh4ntjtm-5i0u-5" target="UwHSXiVxh4ntjtm-5i0u-3" edge="1">
                    <mxGeometry relative="1" as="geometry"/>
                </mxCell>
                <mxCell id="UwHSXiVxh4ntjtm-5i0u-5" value="B" style="text;html=1;strokeColor=none;fillColor=none;align=center;verticalAlign=middle;whiteSpace=wrap;rounded=0;fontSize=9;fontStyle=1" parent="1" vertex="1">
                    <mxGeometry x="230" y="270" width="20" height="20" as="geometry"/>
                </mxCell>
                <mxCell id="UwHSXiVxh4ntjtm-5i0u-6" value="" style="ellipse;whiteSpace=wrap;html=1;aspect=fixed;fillColor=#dae8fc;strokeColor=#6c8ebf;" parent="1" vertex="1">
                    <mxGeometry x="750" y="270" width="20" height="20" as="geometry"/>
                </mxCell>
                <mxCell id="UwHSXiVxh4ntjtm-5i0u-7" value="D" style="text;html=1;strokeColor=none;fillColor=none;align=center;verticalAlign=middle;whiteSpace=wrap;rounded=0;fontSize=9;fontStyle=1" parent="1" vertex="1">
                    <mxGeometry x="750" y="270" width="20" height="20" as="geometry"/>
                </mxCell>
                <mxCell id="UwHSXiVxh4ntjtm-5i0u-10" value="&lt;font style=&quot;font-size: 10px&quot;&gt;OfferPart 4&lt;/font&gt;" style="text;html=1;strokeColor=none;fillColor=none;align=center;verticalAlign=middle;whiteSpace=wrap;rounded=0;" parent="1" vertex="1">
                    <mxGeometry x="125" y="260" width="70" height="20" as="geometry"/>
                </mxCell>
                <mxCell id="UwHSXiVxh4ntjtm-5i0u-11" value="&lt;font style=&quot;font-size: 10px&quot;&gt;OfferPart 5&lt;/font&gt;" style="text;html=1;strokeColor=none;fillColor=none;align=center;verticalAlign=middle;whiteSpace=wrap;rounded=0;" parent="1" vertex="1">
                    <mxGeometry x="500" y="260" width="70" height="20" as="geometry"/>
                </mxCell>
            </root>
        </mxGraphModel>
    </diagram>
</mxfile>